<!DOCTYPE svg PUBLIC "-//W3C//DTD SVG 1.1//EN" "http://www.w3.org/Graphics/SVG/1.1/DTD/svg11.dtd">
<!-- Uploaded to: SVG Repo, www.svgrepo.com, Transformed by: SVG Repo Mixer Tools -->
<svg version="1.1" id="Layer_1" xmlns="http://www.w3.org/2000/svg" xmlns:xlink="http://www.w3.org/1999/xlink" viewBox="0 0 512 512" xml:space="preserve" fill="#000000">
<title>Bosque</title>

<g id="SVGRepo_bgCarrier" stroke-width="0"/>

<g id="SVGRepo_tracerCarrier" stroke-linecap="round" stroke-linejoin="round"/>

<g id="SVGRepo_iconCarrier"> <path style="fill:#A6673A;" d="M161.19,352.273v134.62c0,12.182-9.692,22.099-21.769,22.489c-0.24,0.015-0.495,0.015-0.735,0.015 c-12.437,0-22.504-10.082-22.504-22.504v-134.62c0-12.422,10.067-22.504,22.504-22.504c0.24,0,0.495,0,0.735,0.015 C151.498,330.174,161.19,340.091,161.19,352.273z"/> <path style="fill:#99522E;" d="M161.19,352.273v134.62c0,12.182-9.692,22.099-21.769,22.489V329.784 C151.498,330.174,161.19,340.091,161.19,352.273z"/> <path style="fill:#88CC2A;" d="M262.459,349.752c0,6.046-2.385,11.507-6.256,15.543c-0.06,0.075-0.12,0.15-0.195,0.21 c-0.405,0.42-0.84,0.81-1.29,1.2c-0.105,0.105-0.21,0.195-0.315,0.3c-0.48,0.39-0.975,0.765-1.47,1.11 c-0.09,0.075-0.18,0.135-0.27,0.21c-2.055,1.395-4.351,2.46-6.811,3.121c-0.36,0.105-0.72,0.21-1.08,0.285 c-0.27,0.06-0.525,0.105-0.795,0.15c-0.465,0.075-0.915,0.15-1.365,0.21c-0.195,0.015-0.39,0.045-0.585,0.06 c-0.705,0.075-1.395,0.105-2.085,0.105H38.887c-0.69,0-1.395-0.045-2.1-0.105c-0.165-0.015-0.345-0.03-0.51-0.06 c-0.495-0.06-0.99-0.135-1.485-0.225c-0.225-0.045-0.45-0.075-0.675-0.12c-0.495-0.12-0.99-0.24-1.5-0.39 c-1.575-0.465-3.106-1.08-4.516-1.86c-0.345-0.18-0.66-0.39-0.99-0.6c-0.285-0.165-0.585-0.33-0.855-0.525 c-0.42-0.27-0.81-0.585-1.2-0.885c-0.18-0.15-0.36-0.27-0.525-0.405c-0.39-0.33-0.75-0.66-1.11-1.005 c-0.165-0.165-0.345-0.315-0.495-0.465c-0.315-0.315-0.6-0.66-0.9-0.99c-0.195-0.21-0.39-0.42-0.57-0.645 c-0.24-0.285-0.435-0.585-0.66-0.87c-0.21-0.3-0.45-0.6-0.645-0.9c-0.165-0.24-0.3-0.48-0.435-0.72c-0.24-0.39-0.48-0.765-0.69-1.17 c-0.105-0.195-0.195-0.39-0.285-0.585c-0.225-0.45-0.45-0.915-0.645-1.38c-0.075-0.195-0.135-0.39-0.21-0.585 c-0.195-0.48-0.375-0.96-0.525-1.455c-0.09-0.3-0.15-0.6-0.24-0.915c-0.09-0.39-0.21-0.78-0.285-1.17 c-0.45-2.19-0.57-4.456-0.33-6.736c0.03-0.39,0.105-0.765,0.165-1.14c0.06-0.345,0.09-0.69,0.165-1.05 c0.15-0.795,0.36-1.575,0.6-2.355L117.787,18.896c0.45-1.59,1.095-3.121,1.875-4.561c0.075-0.135,0.15-0.255,0.225-0.375 c0.285-0.51,0.585-1.005,0.915-1.485c0.105-0.165,0.225-0.315,0.33-0.465c0.315-0.435,0.645-0.87,0.99-1.29 c0.12-0.135,0.24-0.27,0.36-0.405c0.36-0.42,0.735-0.825,1.14-1.23c0.09-0.09,0.21-0.195,0.315-0.285 c0.42-0.405,0.855-0.81,1.32-1.185c0.09-0.06,0.18-0.12,0.255-0.195c0.495-0.375,0.99-0.735,1.5-1.08 c0.09-0.06,0.18-0.105,0.255-0.165c0.525-0.33,1.05-0.645,1.605-0.945c0.12-0.06,0.255-0.12,0.375-0.18 c0.51-0.255,1.035-0.51,1.575-0.735c0.24-0.09,0.48-0.165,0.72-0.27c0.405-0.135,0.795-0.3,1.2-0.435 c0.045-0.015,0.09-0.015,0.12-0.03c0.42-0.12,0.84-0.21,1.26-0.315c0.3-0.075,0.6-0.165,0.885-0.225 c0.72-0.15,1.455-0.255,2.19-0.33c0.315-0.03,0.63-0.03,0.945-0.045c0.42-0.03,0.84-0.06,1.26-0.06h0.015 c0.435,0,0.825,0.03,1.245,0.06c0.315,0.015,0.645,0.015,0.96,0.045c0.735,0.075,1.455,0.18,2.175,0.33 c0.315,0.06,0.63,0.165,0.945,0.24c0.405,0.09,0.81,0.18,1.2,0.3c0.045,0.015,0.09,0.015,0.135,0.03c0.42,0.135,0.825,0.3,1.23,0.45 c0.225,0.09,0.465,0.165,0.69,0.255c0.555,0.225,1.08,0.48,1.605,0.75c0.105,0.06,0.225,0.105,0.345,0.165 c0.555,0.3,1.095,0.63,1.62,0.96c0.075,0.045,0.15,0.09,0.225,0.135c0.525,0.36,1.035,0.72,1.53,1.11 c0.075,0.06,0.15,0.12,0.225,0.18c0.48,0.375,0.915,0.78,1.35,1.2c0.105,0.09,0.21,0.18,0.3,0.27c0.405,0.405,0.78,0.81,1.155,1.23 c0.105,0.135,0.225,0.27,0.345,0.405c0.345,0.42,0.675,0.855,0.99,1.29c0.105,0.165,0.225,0.3,0.33,0.465 c0.33,0.48,0.63,0.975,0.915,1.485c0.075,0.12,0.15,0.24,0.225,0.375c0.78,1.44,1.425,2.971,1.875,4.561l100.264,323.76 C262.039,344.892,262.459,347.277,262.459,349.752z"/> <path style="fill:#7FB335;" d="M262.459,349.752c0,6.046-2.385,11.507-6.256,15.543c-0.06,0.075-0.12,0.15-0.195,0.21 c-0.405,0.42-0.84,0.81-1.29,1.2c-0.105,0.105-0.21,0.195-0.315,0.3c-0.48,0.39-0.975,0.765-1.47,1.11 c-0.09,0.075-0.18,0.135-0.27,0.21c-2.055,1.395-4.351,2.46-6.811,3.121c-0.36,0.105-0.72,0.21-1.08,0.285 c-0.27,0.06-0.525,0.105-0.795,0.15c-0.465,0.075-0.915,0.15-1.365,0.21c-0.195,0.015-0.39,0.045-0.585,0.06 c-0.705,0.075-1.395,0.105-2.085,0.105H139.421V2.603c0.435,0,0.825,0.03,1.245,0.06c0.315,0.015,0.645,0.015,0.96,0.045 c0.735,0.075,1.455,0.18,2.175,0.33c0.315,0.06,0.63,0.165,0.945,0.24c0.405,0.09,0.81,0.18,1.2,0.3 c0.045,0.015,0.09,0.015,0.135,0.03c0.42,0.135,0.825,0.3,1.23,0.45c0.225,0.09,0.465,0.165,0.69,0.255 c0.555,0.225,1.08,0.48,1.605,0.75c0.105,0.06,0.225,0.105,0.345,0.165c0.555,0.3,1.095,0.63,1.62,0.96 c0.075,0.045,0.15,0.09,0.225,0.135c0.525,0.36,1.035,0.72,1.53,1.11c0.075,0.06,0.15,0.12,0.225,0.18 c0.48,0.375,0.915,0.78,1.35,1.2c0.105,0.09,0.21,0.18,0.3,0.27c0.405,0.405,0.78,0.81,1.155,1.23 c0.105,0.135,0.225,0.27,0.345,0.405c0.345,0.42,0.675,0.855,0.99,1.29c0.105,0.165,0.225,0.3,0.33,0.465 c0.33,0.48,0.63,0.975,0.915,1.485c0.075,0.12,0.15,0.24,0.225,0.375c0.78,1.44,1.425,2.971,1.875,4.561l100.264,323.76 C262.039,344.892,262.459,347.277,262.459,349.752z"/> <path style="fill:#A6673A;" d="M391.993,377.403v107.99c0,12.422-10.082,22.504-22.504,22.504 c-12.437,0-22.504-10.082-22.504-22.504v-107.99c0-12.422,10.067-22.504,22.504-22.504 C381.911,354.898,391.993,364.98,391.993,377.403z"/> <path style="fill:#99522E;" d="M391.993,377.403v107.99c0,12.422-10.082,22.504-22.504,22.504V354.898 C381.911,354.898,391.993,364.98,391.993,377.403z"/> <path style="fill:#88CC2A;" d="M473.233,375.377c0,5.266-1.83,10.112-4.861,13.938c-0.045,0.075-0.09,0.135-0.135,0.195 c-0.36,0.435-0.735,0.855-1.125,1.26c-0.12,0.135-0.225,0.27-0.345,0.39c-0.36,0.36-0.735,0.69-1.11,1.035 c-0.18,0.15-0.33,0.3-0.51,0.45c-0.405,0.345-0.825,0.645-1.245,0.96c-0.165,0.12-0.315,0.24-0.48,0.36 c-0.585,0.405-1.2,0.765-1.83,1.125c-0.015,0-0.015,0-0.03,0.015c-1.515,0.825-3.151,1.485-4.861,1.95 c-0.39,0.105-0.78,0.21-1.17,0.3c-0.255,0.06-0.51,0.105-0.765,0.15c-0.465,0.09-0.93,0.15-1.395,0.21 c-0.18,0.015-0.375,0.045-0.57,0.06c-0.705,0.075-1.395,0.12-2.085,0.12c-0.06,0-0.105-0.015-0.15-0.015h-160.98 c-0.045,0-0.09,0.015-0.15,0.015c-0.69,0-1.395-0.045-2.1-0.12c-0.165-0.015-0.345-0.03-0.51-0.06 c-0.495-0.06-0.99-0.135-1.485-0.225c-0.225-0.045-0.45-0.075-0.675-0.12c-0.495-0.12-0.99-0.24-1.5-0.39 c-1.575-0.45-3.106-1.065-4.516-1.845c-0.345-0.195-0.66-0.405-0.99-0.615c-0.285-0.165-0.585-0.33-0.855-0.51 c-0.42-0.285-0.81-0.6-1.2-0.9c-0.18-0.135-0.36-0.27-0.525-0.405c-0.39-0.315-0.75-0.66-1.11-1.005 c-0.165-0.165-0.345-0.3-0.495-0.465c-0.315-0.315-0.6-0.66-0.9-0.99c-0.195-0.21-0.39-0.42-0.57-0.645 c-0.24-0.285-0.435-0.585-0.66-0.87c-0.21-0.3-0.45-0.585-0.645-0.9c-0.165-0.24-0.3-0.48-0.435-0.72 c-0.24-0.375-0.48-0.765-0.69-1.17c-0.105-0.195-0.195-0.39-0.285-0.585c-0.225-0.45-0.45-0.915-0.645-1.38 c-0.075-0.195-0.135-0.39-0.21-0.585c-0.195-0.48-0.375-0.96-0.525-1.455c-0.09-0.3-0.15-0.6-0.24-0.9 c-0.09-0.405-0.21-0.795-0.285-1.185c-0.45-2.19-0.57-4.456-0.33-6.736c0.03-0.39,0.105-0.75,0.165-1.14 c0.06-0.345,0.09-0.69,0.165-1.035c0.15-0.81,0.36-1.59,0.6-2.355l80.475-259.878c0.255-0.87,0.555-1.71,0.915-2.535 c0.015-0.06,0.06-0.12,0.075-0.195c0.27-0.6,0.555-1.185,0.87-1.77c0.09-0.165,0.195-0.345,0.3-0.51 c0.27-0.465,0.54-0.915,0.825-1.35c0.135-0.195,0.285-0.375,0.42-0.57c0.3-0.405,0.585-0.795,0.9-1.185 c0.15-0.165,0.3-0.33,0.45-0.495c0.33-0.39,0.675-0.765,1.05-1.125c0.12-0.135,0.27-0.255,0.405-0.39 c0.39-0.375,0.795-0.735,1.23-1.08c0.12-0.105,0.24-0.18,0.36-0.285c0.45-0.345,0.915-0.69,1.395-1.005 c0.12-0.09,0.255-0.15,0.375-0.24c0.48-0.3,0.975-0.6,1.485-0.87c0.165-0.09,0.345-0.165,0.51-0.255 c0.48-0.225,0.945-0.465,1.44-0.66c0.3-0.135,0.615-0.24,0.93-0.345c0.345-0.12,0.675-0.27,1.02-0.375 c0.03-0.015,0.06-0.015,0.105-0.03c0.525-0.15,1.065-0.285,1.59-0.405c0.195-0.045,0.375-0.105,0.555-0.135 c0.72-0.15,1.455-0.255,2.205-0.33c0.255-0.03,0.51-0.03,0.78-0.045s0.555-0.03,0.84-0.045c0.195-0.015,0.39-0.015,0.585-0.015 c0.48,0,0.96,0.03,1.44,0.06c0.255,0.015,0.51,0.015,0.765,0.045c0.75,0.075,1.485,0.18,2.205,0.33c0.18,0.03,0.36,0.09,0.525,0.135 c0.555,0.12,1.095,0.24,1.62,0.405c0.045,0.015,0.075,0.015,0.105,0.03c0.345,0.105,0.675,0.24,1.005,0.375 c0.315,0.105,0.645,0.21,0.945,0.345c0.495,0.195,0.96,0.42,1.425,0.66c0.18,0.09,0.36,0.165,0.525,0.255 c0.51,0.27,1.005,0.57,1.485,0.87c0.12,0.075,0.255,0.15,0.375,0.24c0.48,0.315,0.945,0.66,1.395,1.005 c0.12,0.09,0.24,0.18,0.36,0.285c0.435,0.345,0.84,0.705,1.23,1.08c0.135,0.135,0.285,0.255,0.405,0.39 c0.375,0.36,0.72,0.735,1.05,1.125c0.15,0.165,0.3,0.33,0.45,0.495c0.315,0.39,0.615,0.78,0.9,1.185 c0.135,0.195,0.285,0.375,0.42,0.57c0.285,0.435,0.555,0.9,0.825,1.35c0.105,0.18,0.21,0.345,0.3,0.51 c0.315,0.585,0.6,1.185,0.87,1.785c0.03,0.06,0.06,0.12,0.075,0.18c0.36,0.825,0.66,1.665,0.915,2.535l80.4,259.653 C472.828,370.561,473.233,372.932,473.233,375.377z"/> <path style="fill:#7FB335;" d="M473.233,375.377c0,5.266-1.83,10.112-4.861,13.938c-0.045,0.075-0.09,0.135-0.135,0.195 c-0.36,0.435-0.735,0.855-1.125,1.26c-0.12,0.135-0.225,0.27-0.345,0.39c-0.36,0.36-0.735,0.69-1.11,1.035 c-0.18,0.15-0.33,0.3-0.51,0.45c-0.405,0.345-0.825,0.645-1.245,0.96c-0.165,0.12-0.315,0.24-0.48,0.36 c-0.585,0.405-1.2,0.765-1.83,1.125c-0.015,0-0.015,0-0.03,0.015c-1.515,0.825-3.151,1.485-4.861,1.95 c-0.39,0.105-0.78,0.21-1.17,0.3c-0.255,0.06-0.51,0.105-0.765,0.15c-0.465,0.09-0.93,0.15-1.395,0.21 c-0.18,0.015-0.375,0.045-0.57,0.06c-0.705,0.075-1.395,0.12-2.085,0.12c-0.06,0-0.105-0.015-0.15-0.015h-81.075V92.47 c0.195-0.015,0.39-0.015,0.585-0.015c0.48,0,0.96,0.03,1.44,0.06c0.255,0.015,0.51,0.015,0.765,0.045 c0.75,0.075,1.485,0.18,2.205,0.33c0.18,0.03,0.36,0.09,0.525,0.135c0.555,0.12,1.095,0.24,1.62,0.405 c0.045,0.015,0.075,0.015,0.105,0.03c0.345,0.105,0.675,0.24,1.005,0.375c0.315,0.105,0.645,0.21,0.945,0.345 c0.495,0.195,0.96,0.42,1.425,0.66c0.18,0.09,0.36,0.165,0.525,0.255c0.51,0.27,1.005,0.57,1.485,0.87 c0.12,0.075,0.255,0.15,0.375,0.24c0.48,0.315,0.945,0.66,1.395,1.005c0.12,0.09,0.24,0.18,0.36,0.285 c0.435,0.345,0.84,0.705,1.23,1.08c0.135,0.135,0.285,0.255,0.405,0.39c0.375,0.36,0.72,0.735,1.05,1.125 c0.15,0.165,0.3,0.33,0.45,0.495c0.315,0.39,0.615,0.78,0.9,1.185c0.135,0.195,0.285,0.375,0.42,0.57 c0.285,0.435,0.555,0.9,0.825,1.35c0.105,0.18,0.21,0.345,0.3,0.51c0.315,0.585,0.6,1.185,0.87,1.785 c0.03,0.06,0.06,0.12,0.075,0.18c0.36,0.825,0.66,1.665,0.915,2.535l80.4,259.653C472.828,370.561,473.233,372.932,473.233,375.377z "/> <path style="fill:#88CC2A;" d="M512,486.893c0,12.422-10.082,22.504-22.504,22.504H22.504C10.082,509.397,0,499.315,0,486.893 c0-12.437,10.082-22.504,22.504-22.504h466.992C501.918,464.389,512,474.456,512,486.893z"/> <path style="fill:#7FB335;" d="M512,486.893c0,12.422-10.082,22.504-22.504,22.504H262.459v-45.008h227.037 C501.918,464.389,512,474.456,512,486.893z"/> </g>

</svg>