<!DOCTYPE svg PUBLIC "-//W3C//DTD SVG 1.1//EN" "http://www.w3.org/Graphics/SVG/1.1/DTD/svg11.dtd">
<!-- Uploaded to: SVG Repo, www.svgrepo.com, Transformed by: SVG Repo Mixer Tools -->
<svg version="1.1" id="Layer_1" xmlns="http://www.w3.org/2000/svg" xmlns:xlink="http://www.w3.org/1999/xlink" viewBox="0 0 481.12 481.12" xml:space="preserve" fill="#ffffff">
<title>LLuvia</title>

<g id="SVGRepo_bgCarrier" stroke-width="0"/>

<g id="SVGRepo_tracerCarrier" stroke-linecap="round" stroke-linejoin="round"/>

<g id="SVGRepo_iconCarrier"> <path style="fill:#77B9C8;" d="M427.2,162.4c-1.12,0-42.744,0-42.744,0c0.744-8,1.24-11.184,1.256-15.976 c0.128-42.768-28.424-81.376-70.192-90.584c-23.808-5.248-46.536-1.984-65.336,8.16C227.248,29.856,189.232,6.52,145.672,3.856 c-5.608-0.768-11.28-1.384-17.096-1.384C57.568,2.472,0,61.8,0,135.032c0,38.16,15.72,72.432,40.744,96.624 c22.12,24.544,52.84,40.384,89.216,43.024c0,0,296.12,1.464,297.24,1.464c29.776,0,53.92-24.8,53.92-56.872 C481.12,187.2,456.976,162.4,427.2,162.4z"/> <g> <path style="fill:#92C7D3;" d="M34.552,478.648c-1.36,0-2.736-0.344-3.992-1.072c-3.832-2.208-5.144-7.104-2.928-10.928l28-48.496 c2.208-3.832,7.112-5.144,10.928-2.928c3.832,2.208,5.144,7.104,2.928,10.928l-28,48.496 C40.008,477.216,37.32,478.648,34.552,478.648z"/> <path style="fill:#92C7D3;" d="M82.552,478.648c-1.36,0-2.736-0.344-3.992-1.072c-3.832-2.208-5.144-7.104-2.928-10.928l28-48.496 c2.208-3.832,7.112-5.144,10.928-2.928c3.832,2.208,5.144,7.104,2.928,10.928l-28,48.496 C88.008,477.216,85.32,478.648,82.552,478.648z"/> <path style="fill:#92C7D3;" d="M130.552,478.648c-1.36,0-2.736-0.344-3.992-1.072c-3.832-2.208-5.144-7.104-2.928-10.928l28-48.496 c2.208-3.832,7.104-5.144,10.928-2.928c3.832,2.208,5.144,7.104,2.928,10.928l-28,48.496 C136.008,477.216,133.32,478.648,130.552,478.648z"/> <path style="fill:#92C7D3;" d="M178.552,478.648c-1.36,0-2.736-0.344-3.992-1.072c-3.832-2.208-5.144-7.104-2.928-10.928l28-48.496 c2.208-3.832,7.112-5.144,10.928-2.928c3.832,2.208,5.144,7.104,2.928,10.928l-28,48.496 C184.008,477.216,181.32,478.648,178.552,478.648z"/> <path style="fill:#92C7D3;" d="M370.552,478.648c-1.36,0-2.736-0.344-3.992-1.072c-3.832-2.208-5.144-7.104-2.928-10.928l28-48.496 c2.208-3.832,7.112-5.144,10.928-2.928c3.832,2.208,5.144,7.104,2.928,10.928l-28,48.496 C376.008,477.216,373.32,478.648,370.552,478.648z"/> <path style="fill:#92C7D3;" d="M322.552,478.648c-1.36,0-2.736-0.344-3.992-1.072c-3.832-2.208-5.144-7.104-2.928-10.928l28-48.496 c2.216-3.832,7.104-5.144,10.928-2.928c3.832,2.208,5.144,7.104,2.928,10.928l-28,48.496 C328.008,477.216,325.32,478.648,322.552,478.648z"/> <path style="fill:#92C7D3;" d="M418.552,478.648c-1.36,0-2.736-0.344-3.992-1.072c-3.832-2.208-5.144-7.104-2.928-10.928l28-48.496 c2.208-3.832,7.104-5.144,10.928-2.928c3.832,2.208,5.144,7.104,2.928,10.928l-28,48.496 C424.008,477.216,421.32,478.648,418.552,478.648z"/> </g> <g> <polygon style="fill:#FDC567;" points="88.272,369.2 113.768,298.992 68.904,273.088 171.472,159.464 144.104,259.04 201.624,292.248 "/> <polygon style="fill:#FDC567;" points="260.616,452.152 286.112,381.944 241.248,356.04 343.816,242.416 316.448,341.984 373.968,375.192 "/> </g> </g>

</svg>