<!DOCTYPE svg PUBLIC "-//W3C//DTD SVG 1.1//EN" "http://www.w3.org/Graphics/SVG/1.1/DTD/svg11.dtd">
<!-- Uploaded to: SVG Repo, www.svgrepo.com, Transformed by: SVG Repo Mixer Tools -->
<svg version="1.1" id="Layer_1" xmlns="http://www.w3.org/2000/svg" xmlns:xlink="http://www.w3.org/1999/xlink" viewBox="0 0 512 512" xml:space="preserve" width="800px" height="800px" fill="#ffffff">
<title>Viento</title>

<g id="SVGRepo_bgCarrier" stroke-width="0"/>

<g id="SVGRepo_tracerCarrier" stroke-linecap="round" stroke-linejoin="round"/>

<g id="SVGRepo_iconCarrier"> <path style="fill:#BF720D;" d="M512,120.889V78.222c-35.122,0-68.841,7.499-99.386,21.714c-0.134-1.637-0.199-3.325-0.155-5.049 c0.367-14.692,7.913-25.222,23.748-33.141l-19.081-38.161C386.593,38.851,369.778,64.569,369.778,96 c0,10.408,1.853,19.775,3.917,26.984c-10.509,7.72-20.434,16.373-29.663,25.938c-9.599,9.95-18.227,20.634-25.853,31.922 c-3.911-5.514-7.465-12.426-8.91-20.497c-2.641-14.756,2.281-31.053,14.628-48.439l-34.786-24.705 c-19.405,27.322-26.709,54.696-21.715,81.361c4.601,24.558,18.513,42.084,29.057,52.275c-10.799,25.449-17.172,52.858-18.729,81.206 c-5.72-2.344-10.59-5.781-14.556-10.315c-9.34-10.674-14.278-27.947-14.278-49.951h-42.667c0,57.142,26.729,95.467,71.111,104.563 v137.215l90.02-21.333c-26.524-31.35-42.644-69.791-46.468-110.508c6.699,1.225,14.246,2.038,22.501,2.038 c26.657,0,60.649-8.454,96.937-38.696l-27.314-32.778c-40.964,34.138-75.962,30.512-92.844,25.525 c0.912-23.717,5.899-46.665,14.618-67.972c9.411,3.187,22.042,6.29,37.22,7.239c2.898,0.182,5.949,0.284,9.142,0.284 c29.638,0,71.41-8.86,116.068-46.076l-27.314-32.778c-48.984,40.822-91.408,38.906-114.209,33.121 c5.713-8.118,12.065-15.838,19.048-23.076C410.606,141.365,459.352,120.889,512,120.889z"/> <g> <path style="fill:#DEDDE0;" d="M184.889,7.111c-35.29,0-64,28.71-64,64c0,7.479,1.301,14.656,3.669,21.333H0v42.667h184.889 c35.291,0,64-28.71,64-64S220.18,7.111,184.889,7.111z"/> <rect y="177.778" style="fill:#DEDDE0;" width="156.444" height="42.667"/> </g> <rect y="462.222" style="fill:#806D22;" width="512" height="42.667"/> <rect x="256" y="462.222" style="fill:#403711;" width="256" height="42.667"/> </g>

</svg>